<svg width="90" height="90" viewBox="0 0 90 90" fill="none" xmlns="http://www.w3.org/2000/svg">
<circle cx="45" cy="45" r="44.5" stroke="white"/>
<path d="M74.5 45C74.5 57.3415 71.1642 68.4919 65.7972 76.5425C60.4278 84.5965 53.0651 89.5 45 89.5C36.9349 89.5 29.5722 84.5965 24.2028 76.5425C18.8358 68.4919 15.5 57.3415 15.5 45C15.5 32.6585 18.8358 21.5081 24.2028 13.4575C29.5722 5.40354 36.9349 0.5 45 0.5C53.0651 0.5 60.4278 5.40354 65.7972 13.4575C71.1642 21.5081 74.5 32.6585 74.5 45Z" stroke="white"/>
<path d="M59.5 45C59.5 57.3876 57.8256 68.5818 55.1323 76.6617C53.7847 80.7043 52.1912 83.9397 50.446 86.1542C48.6963 88.3743 46.8522 89.5 45 89.5C43.1478 89.5 41.3037 88.3743 39.554 86.1542C37.8088 83.9397 36.2153 80.7043 34.8677 76.6617C32.1744 68.5818 30.5 57.3876 30.5 45C30.5 32.6124 32.1744 21.4182 34.8677 13.3383C36.2153 9.29573 37.8088 6.06031 39.554 3.84581C41.3037 1.62567 43.1478 0.5 45 0.5C46.8522 0.5 48.6963 1.62567 50.446 3.84581C52.1912 6.06031 53.7847 9.29573 55.1323 13.3383C57.8256 21.4182 59.5 32.6124 59.5 45Z" stroke="white"/>
<path d="M45 15.5C57.3415 15.5 68.4919 18.8358 76.5425 24.2028C84.5965 29.5722 89.5 36.9349 89.5 45C89.5 53.0651 84.5965 60.4278 76.5425 65.7972C68.4919 71.1642 57.3415 74.5 45 74.5C32.6585 74.5 21.5081 71.1642 13.4575 65.7972C5.40354 60.4278 0.5 53.0651 0.5 45C0.5 36.9349 5.40354 29.5722 13.4575 24.2028C21.5081 18.8358 32.6585 15.5 45 15.5Z" stroke="white"/>
<path d="M45 30.5C57.3876 30.5 68.5818 32.1744 76.6617 34.8677C80.7043 36.2153 83.9397 37.8088 86.1542 39.554C88.3743 41.3037 89.5 43.1478 89.5 45C89.5 46.8522 88.3743 48.6963 86.1542 50.446C83.9397 52.1912 80.7043 53.7847 76.6617 55.1323C68.5818 57.8256 57.3876 59.5 45 59.5C32.6124 59.5 21.4182 57.8256 13.3383 55.1323C9.29573 53.7847 6.06031 52.1912 3.84581 50.446C1.62567 48.6963 0.5 46.8522 0.5 45C0.5 43.1478 1.62567 41.3037 3.84581 39.554C6.06031 37.8088 9.29573 36.2153 13.3383 34.8677C21.4182 32.1744 32.6124 30.5 45 30.5Z" stroke="white"/>
</svg>
